<?xml version="1.0" encoding="UTF-8"?>
<svg id="Layer_1" xmlns="http://www.w3.org/2000/svg" version="1.1" viewBox="0 0 721.9 1080">
  <!-- Generator: Adobe Illustrator 29.7.1, SVG Export Plug-In . SVG Version: 2.1.1 Build 8)  -->
  <path d="M359.42,921.95c-2.32,0-4.63-.63-6.68-1.9l-197.12-121.86c-3.09-1.91-6.17-3.88-9.16-5.84-40.16-26.41-73.07-59.11-97.82-97.18-23.92-36.8-39.22-77.01-45.49-119.51-12.51-84.83,12.37-169.55,70.06-238.55L351.21,4.55c2.41-2.89,5.98-4.55,9.74-4.55s7.33,1.67,9.74,4.55l277.99,332.55c57.68,69,82.56,153.72,70.06,238.55-6.27,42.51-21.57,82.72-45.49,119.51-24.74,38.07-57.65,70.77-97.82,97.18-2.99,1.97-6.07,3.93-9.16,5.84l-197.12,121.86c-2.5,1.54-5.4,2.15-8.21,1.8-.51.06-1.02.09-1.53.09ZM360.95,32.49L92.7,353.39c-52.98,63.37-75.86,141-64.42,218.57,11.82,80.18,58.75,150.91,132.14,199.18,2.79,1.84,5.67,3.67,8.56,5.46l191.97,118.68,191.97-118.68c2.89-1.79,5.77-3.62,8.56-5.46,73.39-48.27,120.32-119.01,132.14-199.18,11.44-77.57-11.44-155.19-64.42-218.57L360.95,32.49Z"/>
  <path d="M292.55,1080c-46.33,0-82.62-30.24-82.62-68.84,0-13.33,5.1-25.72,14.35-34.9,9.37-9.29,22.19-14.41,36.1-14.41,21.54,0,39.85,14.08,44.53,34.23,1.59,6.83-2.66,13.65-9.49,15.24-6.83,1.58-13.65-2.66-15.24-9.49-2.03-8.73-9.99-14.59-19.8-14.59-14.52,0-25.07,10.06-25.07,23.92,0,24.36,25.14,43.45,57.23,43.45s57.23-21.68,57.23-48.33v-232.77c-46.87-2.64-90.58-19.89-124.21-49.25-37.14-32.41-57.6-75.65-57.6-121.76,0-114.16,95.32-187.84,171.9-247.04,3.32-2.57,6.63-5.13,9.91-7.67v-83.16c0-27.66,10.63-51.7,29.16-65.96,13.99-10.76,31.03-14.53,46.77-10.36,12.27,3.26,22.63,11.53,29.16,23.29,8.56,15.42,10,35.55,3.96,55.23-10,32.56-43.09,61.53-83.66,93.35v134.72c9.43-1.8,19.22-2.75,29.26-2.75,37.09,0,71.82,13.76,97.8,38.74,26.29,25.27,40.76,59.37,40.76,96.01,0,42.39-19.21,80.57-54.09,107.51-30.05,23.2-70.05,36.9-113.73,39.12v232.74c0,40.65-37.06,73.72-82.62,73.72ZM375.18,520.86v227.28c83.27-4.58,142.43-54.14,142.43-121.21,0-61.32-49.71-109.35-113.17-109.35-10.11,0-19.92,1.15-29.26,3.29ZM349.79,379.9c-74.51,57.66-156.42,123.41-156.42,222.61,0,76.8,69.08,139.94,156.42,145.56v-218.41c-34.87,16.57-58.52,48.49-58.52,85.05,0,19.61,8.51,38.42,23.97,52.97,5.11,4.8,5.35,12.84.55,17.94-4.8,5.11-12.84,5.35-17.94.55-20.61-19.39-31.96-44.77-31.96-71.46,0-50.42,34.61-93.82,83.91-112.6v-122.21ZM412.96,212.06c-6.28,0-12.78,2.33-18.53,6.75-12.23,9.41-19.25,26.12-19.25,45.84v63.06c29.16-23.81,52.72-46.6,59.39-68.3,4.03-13.12,3.34-26.04-1.89-35.46-2.23-4.01-6.37-9.19-13.47-11.08-2.03-.54-4.13-.8-6.25-.8Z"/>
</svg>